<svg viewBox="0 0 64 64" xml:space="preserve" xmlns="http://www.w3.org/2000/svg" enable-background="new 0 0 64 64"><path d="M11.7 38.2c-1.8 0-3.2 1.4-3.2 3.2 0 1.8 1.4 3.2 3.2 3.2s3.2-1.4 3.2-3.2c0-1.8-1.4-3.2-3.2-3.2zm0 4.2c-.6 0-1-.4-1-1s.4-1 1-1 1 .4 1 1c0 .5-.4 1-1 1zM48.3 38.2c-1.8 0-3.2 1.4-3.2 3.2 0 1.8 1.4 3.2 3.2 3.2s3.2-1.4 3.2-3.2c0-1.8-1.4-3.2-3.2-3.2zm0 4.2c-.6 0-1-.4-1-1s.4-1 1-1 1 .4 1 1c0 .5-.4 1-1 1z" fill="#4154f1" class="fill-000000"></path><path d="M61.3 24.9h-.6c-.7-4.2-5.3-9.6-12-9.6H26c-6 0-11.2 9.1-12.5 11.6H7.7c-4.3 0-7.7 3.5-7.7 7.7v5.6c0 1.2 1 2.2 2.2 2.2h2.3c.5 3.5 3.6 6.2 7.2 6.2s6.7-2.7 7.2-6.2h22.2c.5 3.5 3.6 6.2 7.2 6.2s6.7-2.7 7.2-6.2h3.1c1.2 0 2.2-1 2.2-2.2V35h.5c1.5 0 2.7-1.2 2.7-2.7v-4.7c0-1.5-1.2-2.7-2.7-2.7zM11.7 46.4c-2.8 0-5.1-2.3-5.1-5.1s2.3-5.1 5.1-5.1 5.1 2.3 5.1 5.1c0 2.9-2.3 5.1-5.1 5.1zm36.6 0c-2.8 0-5.1-2.3-5.1-5.1s2.3-5.1 5.1-5.1 5.1 2.3 5.1 5.1c0 2.9-2.3 5.1-5.1 5.1zm10.3-6.1h-3.1c-.5-3.5-3.6-6.2-7.2-6.2s-6.7 2.7-7.2 6.2H18.9c-.5-3.5-3.6-6.2-7.2-6.2S5 36.8 4.5 40.3H2.2v-5.6c0-3 2.5-5.5 5.5-5.5h6.4c.4 0 .8-.2 1-.6 1.5-3.1 6.4-11 10.9-11h22.6c6.2 0 9.9 5.5 9.9 8.5v14.2zm3.2-8c0 .3-.2.5-.5.5h-.5v-5.7h.5c.3 0 .5.2.5.5v4.7z" fill="#4154f1" class="fill-000000"></path><path d="M35.9 19.9h-7.4c-2.9 0-5.7 1.4-7.2 3.8l-2.5 3.8c-.2.3-.2.8 0 1.1.2.4.6.6 1 .6h16.1c.6 0 1.1-.5 1.1-1.1V21c0-.6-.5-1.1-1.1-1.1zM34.8 27h-13l1.4-2.1c1.1-1.7 3.1-2.8 5.3-2.8h6.3V27zM46.8 19.9h-6.3c-.6 0-1.1.5-1.1 1.1v7.1c0 .6.5 1.1 1.1 1.1h13.9c.6 0 1.1-.5 1.1-1.1.1-4.5-3.8-8.2-8.7-8.2zM41.7 27v-4.9h5.2c3.2 0 5.9 2.1 6.4 4.9H41.7z" fill="#4154f1" class="fill-000000"></path></svg>